 http://desibbrg.org/images/66952052392581364616.gif 
http://desibbrg.org/images/62623064530740226299.png 
http://desibbrg.org/images/34382467761521042429.png 
http://desibbrg.org/images/51266224476648148738.png 
http://desibbrg.org/images/29984246715298678712.png

Media Info - 
Video
ID : 224 (0xE0)
Format : MPEG Video
Format version : Version 2
Format profile : Main@Main
Format settings, BVOP : Yes
Format settings, Matrix : Default
Format settings, GOP : M=3, N=13
Duration : 2h 11mn
Bit rate mode : Variable
Bit rate : 798 Kbps
Maximum bit rate : 9 072 Kbps
Width : 352 pixels
Height : 288 pixels
Display aspect ratio : 4:3
Frame rate : 25.000 fps
Standard : PAL
Color space : YUV
Chroma subsampling : 4:2:0
Bit depth : 8 bits
Scan type : Progressive
Compression mode : Lossy
Bits/(Pixel*Frame) : 0.315
Stream size : 749 MiB (84%)

Audio
ID : 192 (0xC0)
Format : MPEG Audio
Format version : Version 1
Format profile : Layer 2
Duration : 2h 11mn
Bit rate mode : Constant
Bit rate : 128 Kbps
Channel(s) : 2 channels
Sampling rate : 48.0 KHz
Compression mode : Lossy
Stream size : 120 MiB (14%)

Sharer - MasterMind

Seeding 24x7... Extreme Seeding...


Enjoy!
